#define unsaved_width 30
#define unsaved_height 30
static char unsaved_bits[] = {
   0x00, 0x00, 0x00, 0x00, 0x00, 0x00, 0x07, 0x00, 0x00, 0x80, 0x0f, 0x00,
   0x00, 0xc0, 0x0c, 0x00, 0x00, 0x40, 0x0c, 0x00, 0x00, 0x60, 0x0f, 0x00,
   0x00, 0xf0, 0x0f, 0x00, 0x00, 0xf0, 0x07, 0x00, 0x00, 0xf8, 0x07, 0x00,
   0x00, 0xf8, 0x07, 0x00, 0x00, 0xf8, 0x03, 0x00, 0x00, 0xfc, 0x01, 0x00,
   0x00, 0xfc, 0x01, 0x00, 0x00, 0xfc, 0x00, 0x00, 0x00, 0xfe, 0x00, 0x00,
   0x00, 0x7e, 0x00, 0x00, 0x00, 0x3e, 0x00, 0x00, 0x00, 0x3f, 0x00, 0x00,
   0x00, 0x1f, 0x00, 0x00, 0x00, 0x0f, 0x00, 0x00, 0x80, 0x0f, 0x00, 0x00,
   0x80, 0x07, 0x00, 0x00, 0x80, 0x03, 0x00, 0x00, 0x80, 0x01, 0x00, 0x00,
   0x00, 0x00, 0x00, 0x00, 0x70, 0x00, 0x00, 0x00, 0xe8, 0x00, 0x00, 0x00,
   0xf8, 0x00, 0x00, 0x00, 0xf8, 0x00, 0x00, 0x00, 0x70, 0x00, 0x00, 0x00};
