#define logo5_width 237
#define logo5_height 163
static char logo5_bits[] = {
   0x00, 0x00, 0x00, 0x00, 0x00, 0x00, 0x00, 0x00, 0x00, 0x00, 0x00, 0x00,
   0x00, 0x00, 0x00, 0x00, 0x00, 0x00, 0x00, 0x00, 0x00, 0x00, 0x00, 0x00,
   0x00, 0x00, 0x00, 0x00, 0x00, 0x00, 0x00, 0x00, 0x00, 0x00, 0x00, 0x00,
   0x00, 0x00, 0x00, 0x00, 0x00, 0x00, 0x00, 0x00, 0x00, 0x00, 0x00, 0x00,
   0x00, 0x00, 0x00, 0x00, 0x00, 0x00, 0x00, 0x00, 0x00, 0x00, 0x00, 0x00,
   0x00, 0x00, 0x00, 0x00, 0x00, 0x00, 0x00, 0x00, 0x00, 0x00, 0x00, 0x00,
   0x00, 0x00, 0x00, 0x00, 0x00, 0x00, 0x00, 0x00, 0x00, 0x00, 0x00, 0x00,
   0x00, 0x00, 0x00, 0x00, 0x00, 0x00, 0x00, 0x00, 0x00, 0x00, 0x00, 0x00,
   0x00, 0x00, 0x00, 0x00, 0x00, 0x00, 0x00, 0x00, 0x00, 0x00, 0x00, 0x00,
   0x00, 0x00, 0x00, 0x00, 0x00, 0x00, 0x00, 0x00, 0x00, 0x00, 0x00, 0x00,
   0x00, 0x00, 0x00, 0x00, 0x00, 0x00, 0x00, 0x00, 0x00, 0x00, 0x00, 0x00,
   0x00, 0x00, 0x00, 0x00, 0x00, 0x00, 0x00, 0x00, 0x00, 0x00, 0x00, 0x00,
   0x00, 0x00, 0x00, 0x00, 0x00, 0x00, 0x00, 0x00, 0x00, 0x00, 0x00, 0x00,
   0x00, 0x00, 0x00, 0x00, 0x00, 0x00, 0x00, 0x00, 0x00, 0x00, 0x00, 0x00,
   0x00, 0x00, 0x00, 0x00, 0x00, 0x00, 0x00, 0x00, 0x00, 0x00, 0x00, 0x00,
   0x00, 0x00, 0x00, 0x00, 0x00, 0x00, 0x00, 0x00, 0x00, 0x00, 0x00, 0x00,
   0x00, 0x00, 0x00, 0x00, 0x00, 0x00, 0x00, 0x00, 0x00, 0x00, 0x00, 0x00,
   0x00, 0x00, 0x00, 0x00, 0x00, 0x00, 0x00, 0x00, 0x00, 0x00, 0x00, 0x00,
   0x00, 0x00, 0x00, 0x00, 0x00, 0x00, 0x00, 0x00, 0x00, 0x00, 0x00, 0x00,
   0x00, 0x00, 0x00, 0x00, 0x00, 0x00, 0x00, 0x00, 0x00, 0x00, 0x00, 0x00,
   0x00, 0x00, 0x00, 0x00, 0x00, 0x00, 0x00, 0x00, 0x00, 0x00, 0x00, 0x55,
   0x55, 0x55, 0x55, 0x55, 0x55, 0x55, 0x55, 0x55, 0x55, 0x55, 0x55, 0x55,
   0x55, 0x55, 0x55, 0x01, 0x00, 0x00, 0x00, 0x00, 0x00, 0x00, 0x00, 0x00,
   0x00, 0x00, 0x00, 0x00, 0x00, 0x88, 0x88, 0x88, 0x88, 0x88, 0x88, 0x88,
   0x88, 0x88, 0x88, 0x88, 0x88, 0x88, 0x88, 0x88, 0x88, 0x00, 0x00, 0x00,
   0x00, 0x00, 0x00, 0x00, 0x00, 0x00, 0x00, 0x00, 0x00, 0x00, 0x00, 0x22,
   0x22, 0x22, 0x22, 0x22, 0x22, 0x22, 0x22, 0x22, 0x22, 0x22, 0x22, 0xe2,
   0x7f, 0x22, 0x22, 0x00, 0x00, 0x00, 0x00, 0x00, 0x00, 0x00, 0x00, 0x00,
   0x00, 0x00, 0x00, 0x00, 0x00, 0x55, 0x55, 0x55, 0x55, 0x55, 0x55, 0x55,
   0x55, 0x55, 0x55, 0x55, 0x55, 0x39, 0x80, 0x57, 0x55, 0x01, 0x00, 0x00,
   0x00, 0x00, 0x00, 0x00, 0x00, 0x00, 0x00, 0x00, 0x00, 0x00, 0x00, 0x22,
   0x22, 0x22, 0x22, 0x22, 0x22, 0x22, 0x22, 0x22, 0x22, 0x22, 0x22, 0x06,
   0x22, 0x2c, 0x22, 0x00, 0x00, 0x00, 0x00, 0x00, 0x00, 0x00, 0x00, 0x00,
   0x00, 0x00, 0x00, 0x00, 0x00, 0x88, 0x88, 0x88, 0x88, 0x88, 0x88, 0x88,
   0x88, 0x88, 0x88, 0x88, 0x88, 0x81, 0x3f, 0x90, 0x88, 0x00, 0x00, 0x00,
   0x00, 0x00, 0x00, 0x00, 0x00, 0x00, 0x00, 0x00, 0x00, 0x00, 0x00, 0x55,
   0x55, 0x55, 0x55, 0x55, 0x55, 0x55, 0x55, 0x55, 0x55, 0x55, 0xd5, 0x70,
   0xc5, 0x61, 0x55, 0x01, 0x00, 0x00, 0x00, 0x00, 0x00, 0x00, 0x00, 0x00,
   0x00, 0x00, 0x00, 0x00, 0x00, 0x88, 0x88, 0x88, 0x88, 0x88, 0x88, 0x88,
   0x88, 0x88, 0x88, 0x88, 0x48, 0x9c, 0x82, 0xc7, 0x88, 0x00, 0x00, 0x00,
   0x00, 0x00, 0x00, 0x00, 0x00, 0x00, 0x00, 0x00, 0x00, 0x00, 0x00, 0x22,
   0x22, 0x22, 0x22, 0x22, 0x22, 0x22, 0x22, 0x22, 0x22, 0x22, 0x22, 0xb2,
   0xe1, 0x8a, 0x22, 0x00, 0x00, 0x00, 0x00, 0x00, 0x00, 0x00, 0x00, 0x00,
   0x00, 0x00, 0x00, 0x00, 0x00, 0x55, 0x55, 0x55, 0x55, 0x55, 0x55, 0x55,
   0x55, 0x55, 0x55, 0x55, 0x15, 0x53, 0x70, 0x15, 0x55, 0x01, 0x00, 0x00,
   0x00, 0x00, 0x00, 0x00, 0x00, 0x00, 0x00, 0x00, 0x00, 0x00, 0x00, 0x22,
   0x22, 0x22, 0x22, 0x22, 0x22, 0x22, 0x22, 0x22, 0x22, 0x22, 0x8a, 0x22,
   0x3a, 0x22, 0x22, 0x00, 0x00, 0x00, 0x00, 0x00, 0x00, 0x00, 0x00, 0x00,
   0x00, 0x00, 0x00, 0x00, 0x00, 0x88, 0x88, 0x88, 0x88, 0x88, 0x88, 0x88,
   0x88, 0x88, 0x88, 0x88, 0xc8, 0x02, 0x8c, 0x48, 0x8a, 0x00, 0x00, 0x00,
   0x00, 0x00, 0x00, 0x00, 0x00, 0x00, 0x00, 0x00, 0x00, 0x00, 0x00, 0x55,
   0x55, 0x55, 0x55, 0x55, 0x55, 0x55, 0x55, 0x55, 0x55, 0x55, 0x45, 0x43,
   0x57, 0x55, 0x54, 0x01, 0x00, 0x00, 0x00, 0x00, 0x00, 0x00, 0x00, 0x00,
   0x00, 0x00, 0x00, 0x00, 0x00, 0x88, 0x88, 0x88, 0x88, 0x88, 0x88, 0x88,
   0x88, 0x88, 0x88, 0x88, 0xa4, 0x82, 0x88, 0x88, 0x8c, 0x00, 0x00, 0x00,
   0x00, 0x00, 0x00, 0x00, 0x00, 0x00, 0x00, 0x00, 0x00, 0x00, 0x00, 0x22,
   0x22, 0x22, 0x22, 0x22, 0x22, 0x22, 0x22, 0x22, 0x22, 0x22, 0x26, 0x62,
   0x22, 0xa2, 0x24, 0x00, 0x00, 0x00, 0x00, 0x00, 0x00, 0x00, 0x00, 0x00,
   0x00, 0x00, 0x00, 0x00, 0x00, 0x55, 0x55, 0x55, 0x55, 0x55, 0x55, 0x55,
   0x55, 0x55, 0x55, 0x55, 0x67, 0x73, 0x55, 0xd5, 0x5c, 0x01, 0x00, 0x00,
   0x00, 0x00, 0x00, 0x00, 0x00, 0x00, 0x00, 0x00, 0x00, 0x00, 0x00, 0x22,
   0x22, 0x22, 0x22, 0x22, 0x22, 0x22, 0x22, 0x22, 0x22, 0x22, 0x32, 0x12,
   0x22, 0x22, 0x29, 0x00, 0x00, 0x00, 0x00, 0x00, 0x00, 0x00, 0x00, 0x00,
   0x00, 0x00, 0x00, 0x00, 0x00, 0x88, 0x88, 0x88, 0x88, 0x88, 0x88, 0x88,
   0x88, 0x88, 0x88, 0xfe, 0xf3, 0xb3, 0x88, 0x88, 0x89, 0x00, 0x00, 0x00,
   0x00, 0x00, 0x00, 0x00, 0x00, 0x00, 0x00, 0x00, 0x00, 0x00, 0x00, 0x55,
   0x55, 0x55, 0x55, 0x55, 0x55, 0x55, 0x55, 0x55, 0x55, 0x03, 0x00, 0x50,
   0x55, 0x55, 0x59, 0x01, 0x00, 0x00, 0x00, 0x00, 0x00, 0x00, 0x00, 0x00,
   0x00, 0x00, 0x00, 0x00, 0x00, 0x88, 0x88, 0x88, 0x88, 0x88, 0x88, 0x88,
   0x88, 0x88, 0x88, 0x02, 0x00, 0x90, 0x88, 0x88, 0x89, 0x00, 0x00, 0x00,
   0x00, 0x00, 0x00, 0x00, 0x00, 0x00, 0x00, 0x00, 0x00, 0x00, 0x00, 0x22,
   0x22, 0x22, 0x22, 0x22, 0x22, 0x22, 0x22, 0x22, 0x22, 0x02, 0x00, 0x50,
   0x22, 0x22, 0x29, 0x00, 0x00, 0x00, 0x00, 0x00, 0x00, 0x00, 0x00, 0x00,
   0x00, 0x00, 0x00, 0x00, 0x00, 0x55, 0x55, 0x55, 0x55, 0x55, 0x55, 0x55,
   0x55, 0x55, 0x55, 0xff, 0xf7, 0x53, 0x55, 0x55, 0x5d, 0x01, 0x00, 0x00,
   0x00, 0x00, 0x00, 0x00, 0x00, 0x00, 0x00, 0x00, 0x00, 0x00, 0x00, 0x22,
   0x22, 0x22, 0x22, 0x22, 0x22, 0x22, 0x22, 0x22, 0x22, 0x22, 0x32, 0x32,
   0x22, 0x22, 0x29, 0x00, 0x00, 0x00, 0x00, 0x00, 0x00, 0x00, 0x00, 0x00,
   0x00, 0x00, 0x00, 0x00, 0x00, 0x88, 0x88, 0x88, 0x88, 0x88, 0x88, 0x88,
   0x88, 0x88, 0x88, 0x88, 0xa2, 0xb2, 0xa8, 0x88, 0x88, 0x00, 0x00, 0x00,
   0x00, 0x00, 0x00, 0x00, 0x00, 0x00, 0x00, 0x00, 0x00, 0x00, 0x00, 0x55,
   0x55, 0x55, 0x55, 0x55, 0x55, 0x55, 0x55, 0x55, 0x55, 0x55, 0x65, 0xf3,
   0x75, 0xd5, 0x54, 0x01, 0x00, 0x00, 0x00, 0x00, 0x00, 0x00, 0x00, 0x00,
   0x00, 0x00, 0x00, 0x00, 0x00, 0x88, 0x88, 0x88, 0x88, 0x88, 0x88, 0x88,
   0x88, 0x88, 0x88, 0x88, 0xa4, 0x82, 0xbb, 0x89, 0x8c, 0x00, 0x00, 0x00,
   0x00, 0xf0, 0xff, 0xff, 0xff, 0xff, 0xff, 0xff, 0xff, 0xff, 0xff, 0xff,
   0xff, 0xff, 0xff, 0xff, 0xff, 0x3f, 0x22, 0x22, 0x22, 0x22, 0x46, 0x02,
   0x1e, 0x63, 0x26, 0x00, 0x00, 0x00, 0x00, 0x10, 0x00, 0x00, 0x00, 0x00,
   0x00, 0x00, 0x00, 0x00, 0x00, 0x00, 0x00, 0x00, 0x00, 0x00, 0x00, 0x50,
   0x55, 0x55, 0x55, 0x55, 0x5d, 0x23, 0x1c, 0x57, 0x57, 0x01, 0x00, 0x00,
   0x00, 0x10, 0x00, 0x00, 0x00, 0x00, 0x00, 0x00, 0x00, 0x00, 0x00, 0x00,
   0x00, 0x00, 0x00, 0x00, 0x00, 0x30, 0x22, 0x22, 0x22, 0x22, 0x8a, 0x62,
   0x00, 0x2e, 0x22, 0x00, 0x00, 0x00, 0x00, 0x10, 0x00, 0x00, 0x00, 0x00,
   0x00, 0x00, 0x00, 0x00, 0x00, 0x00, 0x00, 0x00, 0x00, 0x00, 0x00, 0x90,
   0x88, 0x88, 0x88, 0x88, 0x18, 0x93, 0x07, 0x98, 0x89, 0x00, 0x00, 0x00,
   0x00, 0x10, 0x00, 0x00, 0x00, 0x00, 0x00, 0x00, 0x00, 0x00, 0x00, 0x00,
   0x00, 0x00, 0x00, 0x00, 0x00, 0x50, 0x55, 0x55, 0x55, 0x55, 0x75, 0x52,
   0x0d, 0xc8, 0x55, 0x01, 0x00, 0x00, 0x00, 0x10, 0x00, 0x00, 0x00, 0x00,
   0x00, 0x00, 0x00, 0x00, 0x00, 0x00, 0x00, 0x00, 0x00, 0x00, 0x00, 0x90,
   0x88, 0x88, 0x88, 0x88, 0xc8, 0xbc, 0x06, 0xc6, 0x88, 0x00, 0x00, 0x00,
   0x00, 0x10, 0x00, 0x00, 0x00, 0x00, 0x00, 0x00, 0x00, 0x00, 0x00, 0x00,
   0x00, 0x00, 0x00, 0x00, 0x00, 0x30, 0x22, 0x22, 0x22, 0x22, 0xa2, 0x70,
   0xc6, 0x21, 0x22, 0x00, 0x00, 0x00, 0x00, 0x10, 0xf0, 0xff, 0xff, 0xff,
   0xff, 0xff, 0xff, 0xff, 0xff, 0xff, 0xff, 0xff, 0xff, 0xff, 0x1f, 0x50,
   0x55, 0x55, 0x55, 0x55, 0xd5, 0x81, 0x3f, 0x50, 0x55, 0x01, 0x00, 0x00,
   0x00, 0x10, 0x10, 0x00, 0x00, 0x00, 0x00, 0x00, 0x00, 0x00, 0x00, 0x00,
   0x00, 0x00, 0x00, 0x00, 0x10, 0x30, 0x22, 0x22, 0x22, 0x22, 0xe2, 0x06,
   0x00, 0x2e, 0x22, 0x00, 0x00, 0x00, 0x00, 0x10, 0x10, 0x00, 0x00, 0x00,
   0x00, 0x00, 0x00, 0x00, 0x00, 0x00, 0x00, 0x00, 0x00, 0x00, 0x10, 0x90,
   0x88, 0x88, 0x88, 0x88, 0xf8, 0xb8, 0x88, 0x8b, 0x88, 0x00, 0x00, 0x00,
   0x00, 0x10, 0x10, 0x00, 0x00, 0x00, 0x00, 0x00, 0x00, 0x00, 0x00, 0x00,
   0x00, 0x00, 0x00, 0x00, 0x10, 0x50, 0x55, 0x55, 0x55, 0x55, 0x7d, 0xd5,
   0x7f, 0x55, 0x55, 0x01, 0x00, 0x00, 0x00, 0x10, 0x10, 0x00, 0x00, 0x00,
   0x00, 0x00, 0x00, 0x00, 0x00, 0x00, 0x00, 0x00, 0x00, 0x00, 0x10, 0x90,
   0x88, 0x88, 0x88, 0x88, 0x9f, 0x88, 0x88, 0x88, 0x88, 0x00, 0x00, 0x00,
   0x00, 0x10, 0x10, 0x00, 0x00, 0x00, 0x00, 0x00, 0x00, 0x00, 0x00, 0x00,
   0x00, 0x00, 0x00, 0x00, 0x10, 0x30, 0x22, 0x22, 0x22, 0xa2, 0x27, 0x22,
   0x22, 0x22, 0x22, 0x00, 0x00, 0x00, 0x00, 0x10, 0x10, 0x00, 0x00, 0x00,
   0x00, 0x00, 0x00, 0x00, 0x00, 0x00, 0x00, 0x00, 0x00, 0x00, 0x10, 0x50,
   0x55, 0x55, 0x55, 0xf5, 0x57, 0x55, 0x55, 0x55, 0x55, 0x01, 0x00, 0x00,
   0x00, 0x10, 0x10, 0x00, 0x00, 0x00, 0x00, 0x00, 0x00, 0x00, 0x00, 0x00,
   0x00, 0x00, 0x00, 0x00, 0x10, 0x30, 0x22, 0x22, 0x22, 0xba, 0x23, 0x22,
   0x22, 0x22, 0x22, 0x00, 0x00, 0x00, 0x00, 0x10, 0x10, 0x00, 0x00, 0x00,
   0x00, 0x00, 0x00, 0x00, 0x00, 0x00, 0x00, 0x00, 0x00, 0x00, 0x10, 0x90,
   0x88, 0x88, 0x88, 0xcc, 0x88, 0x88, 0x88, 0x88, 0x88, 0x00, 0x00, 0x00,
   0x00, 0x10, 0x10, 0x00, 0x00, 0x00, 0x00, 0x00, 0x00, 0x00, 0x00, 0x00,
   0x00, 0x00, 0x00, 0x00, 0x10, 0x50, 0x55, 0x55, 0x55, 0x67, 0x55, 0x55,
   0x55, 0x55, 0x55, 0x01, 0x00, 0x00, 0x00, 0x10, 0x10, 0x00, 0x00, 0x00,
   0x00, 0x00, 0x00, 0x00, 0x00, 0x00, 0x00, 0x00, 0x00, 0x00, 0x10, 0x90,
   0x88, 0x88, 0x88, 0xb1, 0x88, 0x88, 0x88, 0x88, 0x88, 0x00, 0x00, 0x00,
   0x00, 0x10, 0x10, 0x00, 0x00, 0x00, 0x00, 0x00, 0x00, 0x00, 0x00, 0x00,
   0x00, 0x00, 0x00, 0x00, 0x10, 0x30, 0x22, 0x22, 0xe2, 0x3c, 0x22, 0x22,
   0x22, 0x22, 0x22, 0x00, 0x00, 0x00, 0x00, 0x10, 0x10, 0x00, 0x00, 0x00,
   0x00, 0x00, 0x00, 0x00, 0x00, 0x00, 0x00, 0x00, 0x00, 0x00, 0x10, 0x50,
   0x55, 0x55, 0x3d, 0x56, 0x55, 0x55, 0x55, 0x55, 0x55, 0x01, 0x00, 0x00,
   0x00, 0x10, 0x10, 0x00, 0x00, 0x00, 0x00, 0x00, 0x00, 0x00, 0x00, 0x00,
   0x00, 0x00, 0x00, 0x00, 0x10, 0x30, 0x22, 0x22, 0x0e, 0x23, 0x22, 0x22,
   0x22, 0x22, 0x22, 0x00, 0x00, 0x00, 0x00, 0x10, 0x10, 0x00, 0x00, 0x00,
   0x00, 0x00, 0x00, 0x00, 0x00, 0x00, 0x00, 0x00, 0x00, 0x00, 0x10, 0x90,
   0x88, 0x88, 0x87, 0x89, 0x88, 0x88, 0x88, 0x88, 0x88, 0x00, 0x00, 0x00,
   0x00, 0x10, 0x10, 0x00, 0x00, 0x00, 0x00, 0x00, 0x00, 0x00, 0x00, 0x00,
   0x00, 0x00, 0x00, 0x00, 0x10, 0x50, 0x55, 0xd5, 0xc1, 0x55, 0x55, 0x55,
   0x55, 0x55, 0x55, 0x01, 0x00, 0x00, 0x00, 0x10, 0x10, 0x00, 0x00, 0x00,
   0x00, 0x00, 0x00, 0x00, 0x00, 0x00, 0x00, 0x00, 0x00, 0x00, 0x10, 0x90,
   0x88, 0xe8, 0xe0, 0x88, 0x88, 0x88, 0x88, 0x88, 0x88, 0x00, 0x00, 0x00,
   0x00, 0x10, 0x10, 0x00, 0x00, 0x00, 0x00, 0x00, 0x00, 0x00, 0x00, 0x00,
   0x00, 0x00, 0x00, 0x00, 0x10, 0x30, 0x22, 0x3a, 0x30, 0x22, 0x22, 0x22,
   0x22, 0x22, 0x22, 0x00, 0x00, 0x00, 0x00, 0x10, 0x10, 0x00, 0x80, 0xff,
   0x03, 0x00, 0x00, 0x00, 0x78, 0xf8, 0xff, 0xff, 0x1f, 0x00, 0x10, 0x50,
   0x55, 0x0d, 0x5c, 0x55, 0x55, 0x55, 0x55, 0x55, 0x55, 0x01, 0x00, 0x00,
   0x00, 0x10, 0x10, 0x00, 0x00, 0xff, 0x07, 0x00, 0x00, 0x00, 0x38, 0xf8,
   0xff, 0xff, 0xff, 0x00, 0x10, 0x30, 0x22, 0x07, 0x26, 0x22, 0x22, 0x22,
   0x22, 0x22, 0x22, 0x00, 0x00, 0x00, 0x00, 0x10, 0x10, 0x00, 0x00, 0xfe,
   0x0f, 0x00, 0x00, 0x00, 0x1c, 0xc0, 0xff, 0xff, 0xff, 0x07, 0x10, 0x90,
   0x88, 0x01, 0x8b, 0x88, 0x88, 0x88, 0x88, 0x88, 0x88, 0x00, 0x00, 0x00,
   0x00, 0x10, 0x10, 0x00, 0x00, 0xfc, 0x1f, 0x00, 0x00, 0x00, 0x0e, 0x00,
   0xff, 0x03, 0xf8, 0x0f, 0x10, 0x50, 0xf5, 0x80, 0x55, 0x55, 0x55, 0x55,
   0x55, 0x55, 0x55, 0x01, 0x00, 0x00, 0x00, 0x10, 0x10, 0x00, 0x00, 0xf8,
   0x3f, 0x00, 0x00, 0x00, 0x0f, 0x00, 0xff, 0x01, 0xc0, 0x1f, 0x10, 0x90,
   0x38, 0xc0, 0x88, 0x88, 0x88, 0x88, 0x88, 0x88, 0x88, 0x00, 0x00, 0x00,
   0x00, 0x10, 0x10, 0x00, 0x00, 0xf0, 0x3f, 0x00, 0x00, 0x80, 0x07, 0x00,
   0xfe, 0x00, 0x80, 0x3f, 0x10, 0x30, 0x1a, 0x80, 0x23, 0x22, 0x22, 0x22,
   0x22, 0x22, 0x22, 0x00, 0x00, 0x00, 0x00, 0x10, 0x10, 0x00, 0x00, 0xf0,
   0x7f, 0x00, 0x00, 0x80, 0x03, 0x00, 0xfe, 0x00, 0x00, 0x7f, 0x10, 0x50,
   0x35, 0x00, 0x57, 0x55, 0x55, 0x55, 0x55, 0x55, 0x55, 0x01, 0x00, 0x00,
   0x00, 0x10, 0x10, 0x00, 0x00, 0xe0, 0xff, 0x00, 0x00, 0xc0, 0x01, 0x00,
   0xfe, 0x00, 0x00, 0x7e, 0x10, 0x30, 0x62, 0x00, 0x26, 0x22, 0x22, 0x22,
   0x22, 0x22, 0x22, 0x00, 0x00, 0x00, 0x00, 0x10, 0x10, 0x00, 0x00, 0xc0,
   0xff, 0x01, 0x00, 0xe0, 0x00, 0x00, 0xfe, 0x00, 0x00, 0x7e, 0x10, 0x90,
   0xc8, 0x00, 0x8c, 0x88, 0x88, 0x88, 0x88, 0x88, 0x88, 0x00, 0x00, 0x00,
   0x00, 0x10, 0x10, 0x00, 0x00, 0x80, 0xff, 0x03, 0x00, 0x70, 0x00, 0x00,
   0xfe, 0x00, 0x00, 0xfc, 0x10, 0x50, 0xd5, 0x01, 0x58, 0x55, 0x55, 0x55,
   0x55, 0x55, 0x55, 0x01, 0x00, 0x00, 0x00, 0x10, 0x10, 0x00, 0x00, 0x00,
   0xff, 0x07, 0x00, 0x38, 0x00, 0x00, 0xfe, 0x00, 0x00, 0xfc, 0x10, 0x90,
   0x88, 0x03, 0xb0, 0x88, 0x88, 0x88, 0x88, 0x88, 0x88, 0x00, 0x00, 0x00,
   0x00, 0x10, 0x10, 0x00, 0x00, 0x00, 0xfe, 0x0f, 0x00, 0x1c, 0x00, 0x00,
   0xfe, 0x00, 0x00, 0xfc, 0x10, 0x30, 0x22, 0x06, 0x60, 0x22, 0x22, 0x22,
   0x22, 0x22, 0x22, 0x00, 0x00, 0x00, 0x00, 0x10, 0x10, 0x00, 0x00, 0x00,
   0xfc, 0x1f, 0x00, 0x0e, 0x00, 0x00, 0xfe, 0x00, 0x00, 0xfc, 0x10, 0x50,
   0x55, 0x0d, 0xc0, 0x55, 0x55, 0x55, 0x55, 0x55, 0x55, 0x01, 0x00, 0x00,
   0x00, 0x10, 0x10, 0x00, 0x00, 0x00, 0xf8, 0x1f, 0x00, 0x0f, 0x00, 0x00,
   0xfe, 0x00, 0x00, 0xfc, 0x10, 0x30, 0x22, 0x1a, 0x00, 0x23, 0x22, 0x22,
   0x22, 0x22, 0x22, 0x00, 0x00, 0x00, 0x00, 0x10, 0x10, 0x00, 0x00, 0x00,
   0xf0, 0x3f, 0x80, 0x07, 0x00, 0x00, 0xfe, 0x00, 0x00, 0xfc, 0x10, 0x90,
   0x88, 0x38, 0x00, 0x8e, 0x88, 0x88, 0x88, 0x88, 0x88, 0x00, 0x00, 0x00,
   0x00, 0x10, 0x10, 0x00, 0x00, 0x00, 0xe0, 0x7f, 0xc0, 0x03, 0x00, 0x00,
   0xfe, 0x00, 0x00, 0xfc, 0x10, 0x50, 0x55, 0x75, 0x00, 0x5c, 0x55, 0x55,
   0x55, 0x55, 0x55, 0x01, 0x00, 0x00, 0x00, 0x10, 0x10, 0x00, 0x00, 0x00,
   0xc0, 0xff, 0xe0, 0x01, 0x00, 0x00, 0xfe, 0x00, 0x00, 0x7e, 0x10, 0x90,
   0x88, 0xc8, 0x00, 0x8c, 0x88, 0x88, 0x88, 0x88, 0x88, 0x00, 0x00, 0x00,
   0x00, 0x10, 0x10, 0x00, 0x00, 0x00, 0xc0, 0xff, 0xf1, 0x00, 0x00, 0x00,
   0xfe, 0x00, 0x00, 0x7e, 0x10, 0x30, 0x22, 0xe2, 0x00, 0x26, 0x22, 0x22,
   0x22, 0x22, 0x22, 0x00, 0x00, 0x00, 0x00, 0x10, 0x10, 0x00, 0x00, 0x00,
   0x80, 0xff, 0x78, 0x00, 0x00, 0x00, 0xfe, 0x00, 0x00, 0x3f, 0x10, 0x50,
   0x55, 0x35, 0x80, 0x57, 0x55, 0x55, 0x55, 0x55, 0x55, 0x01, 0x00, 0x00,
   0x00, 0x10, 0x10, 0x00, 0x00, 0x00, 0x00, 0x7f, 0x3c, 0x00, 0x00, 0x00,
   0xfe, 0x00, 0x80, 0x3f, 0x10, 0x30, 0x22, 0x1a, 0xc0, 0x22, 0x22, 0x22,
   0x22, 0x22, 0x22, 0x00, 0x00, 0x00, 0x00, 0x10, 0x10, 0x00, 0x00, 0x00,
   0x00, 0x3e, 0x1e, 0x00, 0x00, 0x00, 0xfe, 0x00, 0xc0, 0x1f, 0x10, 0x90,
   0x88, 0x0c, 0xe0, 0x88, 0x88, 0x88, 0x88, 0x88, 0x88, 0x00, 0x00, 0x00,
   0x00, 0x10, 0x10, 0x00, 0x00, 0x00, 0x00, 0x1c, 0x0f, 0x00, 0x00, 0x00,
   0xfe, 0x00, 0xf8, 0x0f, 0x10, 0x50, 0x55, 0x07, 0x78, 0x55, 0x55, 0x55,
   0x55, 0x55, 0x55, 0x01, 0x00, 0x00, 0x00, 0x10, 0x10, 0x00, 0x00, 0x00,
   0x00, 0x8e, 0x0f, 0x00, 0x00, 0x00, 0xfe, 0xff, 0xff, 0x03, 0x10, 0x90,
   0x88, 0x03, 0x8c, 0x88, 0x88, 0x88, 0x88, 0x88, 0x88, 0x00, 0x00, 0x00,
   0x00, 0x10, 0x10, 0x00, 0x00, 0x00, 0x00, 0xc7, 0x1f, 0x00, 0x00, 0x00,
   0xfe, 0xff, 0xff, 0x00, 0x10, 0x30, 0xa2, 0x01, 0x26, 0x22, 0x22, 0x22,
   0x22, 0x22, 0x22, 0x00, 0x00, 0x00, 0x00, 0x10, 0x10, 0x00, 0x00, 0x00,
   0x80, 0xe3, 0x3f, 0x00, 0x00, 0x00, 0xfe, 0xff, 0x07, 0x00, 0x10, 0x50,
   0xd5, 0x80, 0x57, 0x55, 0x55, 0x55, 0x55, 0x55, 0x55, 0x01, 0x00, 0x00,
   0x00, 0x10, 0x10, 0x00, 0x00, 0x00, 0xc0, 0xe1, 0x7f, 0x00, 0x00, 0x00,
   0xfe, 0x00, 0x00, 0x00, 0x10, 0x30, 0x62, 0xc0, 0x22, 0x22, 0x22, 0x22,
   0x22, 0x22, 0x22, 0x00, 0x00, 0x00, 0x00, 0x10, 0x10, 0x00, 0x00, 0x00,
   0xe0, 0xc0, 0x7f, 0x00, 0x00, 0x00, 0xfe, 0x00, 0x00, 0x00, 0x10, 0x90,
   0x38, 0xf0, 0x88, 0x88, 0x88, 0x88, 0x88, 0x88, 0x88, 0x00, 0x00, 0x00,
   0x00, 0x10, 0x10, 0x00, 0x00, 0x00, 0xe0, 0x80, 0xff, 0x00, 0x00, 0x00,
   0xfe, 0x00, 0x00, 0x00, 0x10, 0x50, 0x1d, 0x58, 0x55, 0x55, 0x55, 0x55,
   0x55, 0x55, 0x55, 0x01, 0x00, 0x00, 0x00, 0x10, 0x10, 0x00, 0x00, 0x00,
   0x70, 0x00, 0xff, 0x01, 0x00, 0x00, 0xfe, 0x00, 0x00, 0x00, 0x10, 0x90,
   0x0c, 0x8c, 0x88, 0x88, 0x88, 0x88, 0x88, 0x88, 0x88, 0x00, 0x00, 0x00,
   0x00, 0x10, 0x10, 0x00, 0x00, 0x00, 0x38, 0x00, 0xfe, 0x03, 0x00, 0x00,
   0xfe, 0x00, 0x00, 0x00, 0x10, 0x30, 0x06, 0x27, 0x22, 0x22, 0x22, 0x22,
   0x22, 0x22, 0x22, 0x00, 0x00, 0x00, 0x00, 0x10, 0x10, 0x00, 0x00, 0x00,
   0x1c, 0x00, 0xfe, 0x07, 0x00, 0x00, 0xfe, 0x00, 0x00, 0x00, 0x10, 0x50,
   0x83, 0x55, 0x55, 0x55, 0x55, 0x55, 0x55, 0x55, 0x55, 0x01, 0x00, 0x00,
   0x00, 0x10, 0x10, 0x00, 0x00, 0x00, 0x0e, 0x00, 0xfc, 0x0f, 0x00, 0x00,
   0xfe, 0x00, 0x00, 0x00, 0x10, 0xf0, 0xe1, 0x22, 0x22, 0x22, 0x22, 0x22,
   0x22, 0x22, 0x22, 0x00, 0x00, 0x00, 0x00, 0x10, 0x10, 0x00, 0x00, 0x00,
   0x07, 0x00, 0xf8, 0x1f, 0x00, 0x00, 0xfe, 0x00, 0x00, 0x00, 0x10, 0x70,
   0xb0, 0x88, 0x88, 0x88, 0x88, 0x88, 0x88, 0x88, 0x88, 0x00, 0x00, 0x00,
   0x00, 0x10, 0x10, 0x00, 0x00, 0x00, 0x03, 0x00, 0xf0, 0x1f, 0x00, 0x00,
   0xfe, 0x00, 0x00, 0x00, 0x10, 0x30, 0x58, 0x55, 0x55, 0x55, 0x55, 0x55,
   0x55, 0x55, 0x55, 0x01, 0x00, 0x00, 0x00, 0x10, 0x10, 0x00, 0x00, 0x80,
   0x03, 0x00, 0xe0, 0x3f, 0x00, 0x00, 0xfe, 0x00, 0x00, 0x00, 0x10, 0x18,
   0x8e, 0x88, 0x88, 0x88, 0x88, 0x88, 0x88, 0x88, 0x88, 0x00, 0x00, 0x00,
   0x00, 0x10, 0x10, 0x00, 0x00, 0xc0, 0x01, 0x00, 0xc0, 0x7f, 0x00, 0x00,
   0xfe, 0x00, 0x00, 0x00, 0x10, 0x0c, 0x23, 0x22, 0x22, 0x22, 0x22, 0x22,
   0x22, 0x22, 0x22, 0x00, 0x00, 0x00, 0x00, 0x10, 0x10, 0x00, 0x00, 0xe0,
   0x00, 0x00, 0x80, 0xff, 0x00, 0x00, 0xfe, 0x00, 0x00, 0x00, 0x10, 0xc6,
   0x55, 0x55, 0x55, 0x55, 0x55, 0x55, 0x55, 0x55, 0x55, 0x01, 0x00, 0x00,
   0x00, 0x10, 0x10, 0x00, 0x00, 0x70, 0x00, 0x00, 0x00, 0xff, 0x01, 0x00,
   0xfe, 0x00, 0x00, 0x00, 0x10, 0x63, 0x22, 0x22, 0x22, 0x22, 0x22, 0x22,
   0x22, 0x22, 0x22, 0x00, 0x00, 0x00, 0x00, 0x10, 0x10, 0x00, 0x00, 0x38,
   0x00, 0x00, 0x00, 0xfe, 0x03, 0x00, 0xfe, 0x00, 0x00, 0x00, 0x90, 0xb1,
   0x88, 0x88, 0x88, 0x88, 0x88, 0x88, 0x88, 0x88, 0x88, 0x00, 0x00, 0x00,
   0x00, 0x10, 0x10, 0x00, 0x00, 0x1c, 0x00, 0x00, 0x00, 0xfe, 0x07, 0x00,
   0xff, 0x01, 0x00, 0x00, 0xd0, 0x5c, 0x55, 0x55, 0x55, 0x55, 0x55, 0x55,
   0x55, 0x55, 0x55, 0x01, 0x00, 0x00, 0x00, 0x10, 0x10, 0x00, 0x00, 0x1c,
   0x00, 0x00, 0x00, 0xfc, 0x07, 0x00, 0xff, 0x01, 0x00, 0x00, 0x70, 0x96,
   0x88, 0x88, 0x88, 0x88, 0x88, 0x88, 0x88, 0x88, 0x88, 0x00, 0x00, 0x00,
   0x00, 0x10, 0x10, 0x00, 0x00, 0x0e, 0x00, 0x00, 0x00, 0xf8, 0x0f, 0xc0,
   0xff, 0x07, 0x00, 0x00, 0xb2, 0x33, 0x22, 0x22, 0x22, 0x22, 0x22, 0x22,
   0x22, 0x22, 0x22, 0x00, 0x00, 0x00, 0x00, 0x10, 0x10, 0x00, 0x00, 0x07,
   0x00, 0x00, 0x00, 0xf0, 0x1f, 0xf8, 0xff, 0x3f, 0x00, 0x00, 0xda, 0x50,
   0x55, 0x55, 0x55, 0x55, 0x55, 0x55, 0x55, 0x55, 0x55, 0x01, 0x00, 0x00,
   0x00, 0x10, 0x10, 0x00, 0x80, 0x03, 0x00, 0x00, 0x00, 0xe0, 0x3f, 0xf8,
   0xff, 0x3f, 0x00, 0x00, 0x6f, 0x30, 0x22, 0x22, 0x22, 0x22, 0x22, 0x22,
   0x22, 0x22, 0x22, 0x00, 0x00, 0x00, 0x00, 0x10, 0x10, 0x00, 0x00, 0x00,
   0x00, 0x00, 0x00, 0x00, 0x00, 0x00, 0x00, 0x00, 0x00, 0x00, 0x37, 0x90,
   0x88, 0x88, 0x88, 0x88, 0x88, 0x88, 0x88, 0x88, 0x88, 0x00, 0x00, 0x00,
   0x00, 0x10, 0x10, 0x00, 0x00, 0x00, 0x00, 0x00, 0x00, 0x00, 0x00, 0x00,
   0x00, 0x00, 0x00, 0x80, 0x19, 0x50, 0x55, 0x55, 0x55, 0x55, 0x55, 0x55,
   0x55, 0x55, 0x55, 0x01, 0x00, 0x00, 0x00, 0x10, 0x10, 0x00, 0x00, 0x00,
   0x00, 0x00, 0x00, 0x00, 0x00, 0x00, 0x00, 0x00, 0x00, 0x80, 0x1c, 0x90,
   0x88, 0x88, 0x88, 0x88, 0x88, 0x88, 0x88, 0x88, 0x88, 0x00, 0x00, 0x00,
   0x00, 0x10, 0x10, 0x00, 0x00, 0x00, 0x00, 0x00, 0x00, 0x00, 0x00, 0x00,
   0x00, 0x00, 0x00, 0xc0, 0x3f, 0x30, 0x22, 0x22, 0x22, 0x22, 0x22, 0x22,
   0x22, 0x22, 0x22, 0x00, 0x00, 0x00, 0x00, 0x10, 0x10, 0x00, 0x00, 0x00,
   0x00, 0x00, 0x00, 0x00, 0xc0, 0xff, 0xff, 0xff, 0xff, 0xff, 0x1f, 0xf0,
   0x7f, 0x55, 0x55, 0x55, 0x55, 0x55, 0x55, 0x55, 0x55, 0x01, 0x00, 0x00,
   0x00, 0x10, 0x10, 0x00, 0x00, 0x00, 0x00, 0x00, 0x00, 0x00, 0x70, 0x08,
   0x00, 0x00, 0x00, 0x00, 0x10, 0x10, 0xc8, 0x23, 0x22, 0x22, 0x22, 0x22,
   0x22, 0x22, 0x22, 0x00, 0x00, 0x00, 0x00, 0x10, 0x10, 0x00, 0x00, 0x00,
   0x00, 0x00, 0x00, 0x00, 0x18, 0x08, 0x00, 0x00, 0x00, 0x00, 0x10, 0x10,
   0x08, 0x8e, 0x88, 0x88, 0x88, 0x88, 0x88, 0x88, 0x88, 0x00, 0x00, 0x00,
   0x00, 0x10, 0x10, 0x00, 0x00, 0x00, 0x00, 0x00, 0x00, 0x00, 0x0e, 0x08,
   0x00, 0x00, 0x00, 0x00, 0x10, 0x10, 0x08, 0x5c, 0x55, 0x55, 0x55, 0x55,
   0x55, 0x55, 0x55, 0x01, 0x00, 0x00, 0x00, 0x10, 0x10, 0x00, 0x00, 0x00,
   0x00, 0x00, 0x00, 0x00, 0x02, 0x08, 0x00, 0x00, 0x00, 0x00, 0x10, 0x10,
   0x08, 0x98, 0x88, 0x88, 0x88, 0x88, 0x88, 0x88, 0x88, 0x00, 0x00, 0x00,
   0x00, 0x10, 0x10, 0x00, 0x00, 0x00, 0x00, 0x00, 0x00, 0x00, 0x03, 0x08,
   0x00, 0x00, 0x00, 0x00, 0x10, 0x10, 0x08, 0x30, 0x22, 0x22, 0x22, 0x22,
   0x22, 0x22, 0x22, 0x00, 0x00, 0x00, 0x00, 0x10, 0x10, 0x00, 0x00, 0x00,
   0x00, 0x00, 0x00, 0x80, 0x01, 0x08, 0x00, 0x00, 0x00, 0x00, 0x10, 0x10,
   0x08, 0x70, 0x55, 0x55, 0x55, 0x55, 0x55, 0x55, 0x55, 0x01, 0x00, 0x00,
   0x00, 0x10, 0x10, 0x00, 0x00, 0x00, 0x00, 0x00, 0x00, 0x80, 0x00, 0x08,
   0x00, 0x00, 0x00, 0x00, 0x10, 0x10, 0x08, 0x20, 0x22, 0x22, 0x22, 0x22,
   0x22, 0x22, 0x22, 0x00, 0x00, 0x00, 0x00, 0x10, 0x10, 0x00, 0x00, 0x00,
   0x00, 0x00, 0x00, 0x80, 0x00, 0x08, 0x00, 0x00, 0x00, 0x00, 0x10, 0x10,
   0x08, 0xe0, 0x88, 0x88, 0x88, 0x88, 0x88, 0x88, 0x88, 0x00, 0x00, 0x00,
   0x00, 0x10, 0x10, 0x00, 0x00, 0x00, 0x00, 0x00, 0x00, 0x80, 0x00, 0x08,
   0x00, 0x00, 0x00, 0x00, 0x10, 0x10, 0x08, 0x40, 0x55, 0x55, 0x55, 0x55,
   0x55, 0x55, 0x55, 0x01, 0x00, 0x00, 0x00, 0x10, 0x10, 0x00, 0x00, 0x00,
   0x00, 0x00, 0x00, 0x80, 0x00, 0x08, 0x00, 0x00, 0x00, 0x00, 0x10, 0x10,
   0x08, 0xc0, 0x88, 0x88, 0x88, 0x88, 0x88, 0x88, 0x88, 0x00, 0x00, 0x00,
   0x00, 0x10, 0x10, 0x00, 0x00, 0x00, 0x00, 0x00, 0x00, 0x80, 0x00, 0x08,
   0x00, 0x00, 0x00, 0x00, 0x10, 0x10, 0x08, 0x40, 0x22, 0x22, 0x22, 0x22,
   0x22, 0x22, 0x22, 0x00, 0x00, 0x00, 0x00, 0x10, 0x10, 0x00, 0x00, 0x00,
   0x00, 0x00, 0x00, 0x80, 0x00, 0x08, 0x00, 0x00, 0x00, 0x00, 0x10, 0x10,
   0x08, 0x40, 0x55, 0x55, 0x55, 0x55, 0x55, 0x55, 0x55, 0x01, 0x00, 0x00,
   0x00, 0x10, 0x10, 0x00, 0x00, 0x00, 0x00, 0x00, 0x00, 0x80, 0x00, 0x08,
   0x00, 0x00, 0x00, 0x00, 0x10, 0x10, 0x08, 0x40, 0x22, 0x22, 0x22, 0x22,
   0x22, 0x22, 0x22, 0x00, 0x00, 0x00, 0x00, 0x10, 0x10, 0x00, 0x00, 0x00,
   0x00, 0x00, 0x00, 0x80, 0x00, 0x08, 0x00, 0x00, 0x00, 0x00, 0x10, 0x10,
   0x08, 0xc0, 0x88, 0x88, 0x88, 0x88, 0x88, 0x88, 0x88, 0x00, 0x00, 0x00,
   0x00, 0x10, 0x10, 0x00, 0x00, 0x00, 0x00, 0x00, 0x00, 0x80, 0x00, 0x08,
   0x00, 0x00, 0x00, 0x00, 0x10, 0x10, 0x08, 0x40, 0x55, 0x55, 0x55, 0x55,
   0x55, 0x55, 0x55, 0x01, 0x00, 0x00, 0x00, 0x10, 0x10, 0x00, 0x00, 0x00,
   0x00, 0x00, 0x00, 0x80, 0x00, 0x08, 0x00, 0x00, 0x00, 0x00, 0x10, 0x10,
   0x08, 0xc0, 0x88, 0x88, 0x88, 0x88, 0x88, 0x88, 0x88, 0x00, 0x00, 0x00,
   0x00, 0x10, 0x10, 0x00, 0x00, 0x00, 0x00, 0x00, 0x00, 0x80, 0x00, 0x08,
   0x00, 0x00, 0x00, 0x00, 0x10, 0x10, 0x08, 0x40, 0x22, 0x22, 0x22, 0x22,
   0x22, 0x22, 0x22, 0x00, 0x00, 0x00, 0x00, 0x10, 0xf0, 0xff, 0xff, 0xff,
   0xff, 0xff, 0xff, 0xff, 0xff, 0xff, 0xff, 0xff, 0xff, 0xff, 0x1f, 0x10,
   0x08, 0x40, 0x55, 0x55, 0x55, 0x55, 0x55, 0x55, 0x55, 0x01, 0x00, 0x00,
   0x00, 0x10, 0x00, 0x00, 0x00, 0x00, 0x00, 0x00, 0x00, 0x00, 0x00, 0x00,
   0x00, 0x00, 0x00, 0x00, 0x00, 0x10, 0x08, 0x40, 0x22, 0x22, 0x22, 0x22,
   0x22, 0x22, 0x22, 0x00, 0x00, 0x00, 0x00, 0x10, 0x00, 0x00, 0x00, 0x00,
   0x00, 0x00, 0x00, 0x00, 0x00, 0x00, 0x00, 0x00, 0x00, 0x00, 0x00, 0x10,
   0x08, 0xc0, 0x88, 0x88, 0x88, 0x88, 0x88, 0x88, 0x88, 0x00, 0x00, 0x00,
   0x00, 0x10, 0x00, 0x00, 0x00, 0x00, 0x00, 0x00, 0x00, 0x00, 0x00, 0x00,
   0x00, 0x00, 0x00, 0x00, 0x00, 0x10, 0x08, 0x40, 0x55, 0x55, 0x55, 0x55,
   0x55, 0x55, 0x55, 0x01, 0x00, 0x00, 0x00, 0x10, 0x00, 0x00, 0x00, 0x00,
   0x00, 0x00, 0x00, 0x00, 0x00, 0x00, 0x00, 0x00, 0x00, 0x00, 0x00, 0x10,
   0x08, 0xc0, 0x88, 0xf8, 0x8b, 0x88, 0x88, 0x88, 0x88, 0x00, 0x00, 0x00,
   0x00, 0x10, 0x00, 0x00, 0x00, 0x00, 0x00, 0x00, 0x00, 0x00, 0x00, 0x00,
   0x00, 0x00, 0x00, 0x00, 0x00, 0x10, 0x08, 0xc0, 0xff, 0xff, 0x23, 0x22,
   0x22, 0x22, 0x22, 0x00, 0x00, 0x00, 0x00, 0xf0, 0xff, 0xff, 0xff, 0xff,
   0xff, 0xff, 0xff, 0xff, 0xff, 0xff, 0xff, 0xff, 0xff, 0xff, 0xff, 0x1f,
   0x08, 0xc0, 0xff, 0xff, 0x57, 0x55, 0x55, 0x55, 0x55, 0x01, 0x00, 0x00,
   0x00, 0x00, 0x00, 0x00, 0x00, 0x00, 0x18, 0x00, 0x00, 0x80, 0x00, 0x08,
   0x00, 0x00, 0x00, 0x00, 0x00, 0x00, 0x08, 0xc0, 0xff, 0xff, 0x23, 0x22,
   0x22, 0x22, 0x22, 0x00, 0x00, 0x00, 0x00, 0x00, 0x00, 0x00, 0x00, 0x00,
   0x0c, 0x00, 0x00, 0x80, 0x00, 0x08, 0x00, 0x00, 0x00, 0x00, 0x00, 0x00,
   0x08, 0xc0, 0xff, 0xff, 0x8b, 0x88, 0x88, 0x88, 0x88, 0x00, 0x00, 0x00,
   0x00, 0x00, 0x00, 0x00, 0x00, 0x00, 0x06, 0x00, 0x00, 0x80, 0x00, 0x08,
   0x00, 0x00, 0x00, 0x00, 0x00, 0x00, 0x08, 0xc0, 0xff, 0xff, 0x57, 0x55,
   0x55, 0x55, 0x55, 0x01, 0x00, 0x00, 0x00, 0x00, 0x00, 0x00, 0x00, 0x00,
   0x03, 0x00, 0x00, 0x80, 0x00, 0x08, 0x00, 0x00, 0x00, 0x00, 0x00, 0x00,
   0x08, 0xc0, 0xff, 0xff, 0x8b, 0x88, 0x88, 0x88, 0x88, 0x00, 0x00, 0x00,
   0x00, 0x00, 0x00, 0x00, 0x00, 0xc0, 0x01, 0x00, 0x00, 0x80, 0x00, 0x08,
   0x00, 0x00, 0x00, 0x00, 0x00, 0x00, 0x08, 0x40, 0x22, 0x22, 0x22, 0x22,
   0x22, 0x22, 0x22, 0x00, 0x00, 0x00, 0x00, 0x00, 0x00, 0x00, 0x00, 0x70,
   0x00, 0x00, 0x00, 0x80, 0x00, 0x08, 0x00, 0x00, 0x00, 0x00, 0x00, 0x00,
   0x08, 0x40, 0x55, 0x55, 0x55, 0x55, 0x55, 0x55, 0x55, 0x01, 0x00, 0x00,
   0x00, 0x00, 0x00, 0x00, 0x00, 0x1f, 0x00, 0x00, 0x00, 0x80, 0x00, 0x08,
   0x00, 0x00, 0x00, 0x00, 0x00, 0x00, 0x08, 0x40, 0x22, 0x22, 0x22, 0x22,
   0x32, 0x22, 0x22, 0x00, 0x00, 0x00, 0x00, 0x00, 0x00, 0x00, 0xf8, 0xff,
   0xff, 0xff, 0xff, 0xff, 0x00, 0x08, 0x00, 0x00, 0x00, 0x00, 0x00, 0x00,
   0x08, 0xc0, 0x88, 0x88, 0x88, 0x88, 0xc8, 0x88, 0x88, 0x00, 0x00, 0x00,
   0x00, 0x00, 0x00, 0x00, 0x08, 0x00, 0x00, 0x00, 0x00, 0xc0, 0x00, 0x08,
   0x00, 0x00, 0x00, 0x00, 0x00, 0x00, 0x08, 0x40, 0xd5, 0xff, 0xf5, 0x57,
   0xc5, 0xf5, 0x57, 0x01, 0x00, 0x00, 0x00, 0x00, 0x00, 0x00, 0x08, 0x00,
   0x00, 0x00, 0x00, 0xc0, 0x00, 0x08, 0x00, 0x00, 0x00, 0x00, 0x00, 0x00,
   0x08, 0xc0, 0x38, 0x00, 0x19, 0x8c, 0xb2, 0x0c, 0x8c, 0x00, 0x00, 0x00,
   0x00, 0x00, 0x00, 0x00, 0x08, 0x00, 0x00, 0x00, 0x00, 0xc0, 0x00, 0x08,
   0x00, 0x00, 0x00, 0x00, 0x00, 0x00, 0x08, 0x40, 0xde, 0xf4, 0x0a, 0x2c,
   0x39, 0x06, 0x24, 0x00, 0x00, 0x00, 0x00, 0x00, 0x00, 0x00, 0xf8, 0xff,
   0xff, 0xff, 0xff, 0xff, 0x00, 0x08, 0x00, 0x00, 0x00, 0x00, 0x00, 0x00,
   0x08, 0x40, 0xc5, 0xfc, 0xe5, 0xdc, 0x58, 0x73, 0x54, 0x01, 0x00, 0x00,
   0x00, 0x00, 0x00, 0x00, 0x00, 0x00, 0x00, 0x00, 0x00, 0x80, 0x00, 0x08,
   0x00, 0x00, 0x00, 0x00, 0x00, 0x00, 0x08, 0x40, 0x75, 0x02, 0xf2, 0x78,
   0xad, 0xb9, 0x24, 0x00, 0x00, 0x00, 0x00, 0x00, 0x00, 0x00, 0x00, 0x00,
   0x00, 0x00, 0x00, 0x80, 0x00, 0x08, 0x00, 0x00, 0x00, 0x00, 0x00, 0x00,
   0x08, 0xc0, 0x75, 0x8a, 0x72, 0x58, 0x88, 0xc9, 0x8c, 0x00, 0x00, 0x00,
   0x00, 0x00, 0x00, 0x00, 0x00, 0x00, 0x00, 0x00, 0x00, 0x80, 0x00, 0x08,
   0x00, 0x00, 0x00, 0x00, 0x00, 0x00, 0x08, 0x40, 0x79, 0x5e, 0x73, 0xb9,
   0xdc, 0xd9, 0x54, 0x01, 0x00, 0x00, 0x00, 0x00, 0x00, 0x00, 0x00, 0x00,
   0x00, 0x00, 0x00, 0x80, 0x00, 0x08, 0x00, 0x00, 0x00, 0x00, 0x00, 0x00,
   0x08, 0xc0, 0x30, 0x90, 0x5a, 0x99, 0x8c, 0xe8, 0x8a, 0x00, 0x00, 0x00,
   0x00, 0x00, 0x00, 0x00, 0x00, 0x00, 0x00, 0x00, 0x00, 0x80, 0x00, 0x08,
   0x00, 0x00, 0x00, 0x00, 0x00, 0x00, 0x08, 0x40, 0x32, 0x23, 0x2e, 0xd9,
   0xa6, 0x00, 0x22, 0x00, 0x00, 0x00, 0x00, 0x00, 0x00, 0x00, 0x00, 0x00,
   0x00, 0x00, 0x00, 0x80, 0x00, 0x08, 0x00, 0x00, 0x00, 0x00, 0x00, 0x00,
   0x08, 0x60, 0x35, 0x9f, 0x35, 0x69, 0x56, 0x79, 0x56, 0x01, 0x00, 0x00,
   0x00, 0x00, 0x00, 0x00, 0x00, 0x00, 0x00, 0x00, 0x00, 0x80, 0x00, 0x08,
   0x00, 0x00, 0x00, 0x00, 0x00, 0x00, 0x08, 0x20, 0xb2, 0x22, 0x23, 0x71,
   0xa6, 0x79, 0x22, 0x00, 0x00, 0x00, 0x00, 0x00, 0x00, 0x00, 0x00, 0x00,
   0x00, 0x00, 0x00, 0x80, 0x00, 0x08, 0x00, 0x00, 0x00, 0x00, 0x00, 0x00,
   0x08, 0xa0, 0x98, 0x38, 0x9d, 0x71, 0xca, 0x6c, 0x8a, 0x00, 0x00, 0x00,
   0x00, 0x00, 0x00, 0x00, 0x00, 0x00, 0x00, 0x00, 0x00, 0x80, 0x01, 0x08,
   0x00, 0x00, 0x00, 0x00, 0x00, 0x00, 0x08, 0x60, 0xdd, 0xbf, 0xc3, 0x59,
   0x36, 0x76, 0x5e, 0x01, 0x00, 0x00, 0x00, 0x00, 0x00, 0x00, 0x00, 0x00,
   0x00, 0x00, 0x00, 0x00, 0x03, 0x08, 0x00, 0x00, 0x00, 0x00, 0x00, 0x00,
   0x08, 0xb0, 0x06, 0xc0, 0xe1, 0x6d, 0x18, 0x6b, 0x90, 0x00, 0x00, 0x00,
   0x00, 0x00, 0x00, 0x00, 0x00, 0x00, 0x00, 0x00, 0x00, 0x00, 0x02, 0x08,
   0x00, 0x00, 0x00, 0x00, 0x00, 0x00, 0x08, 0x18, 0x02, 0x60, 0x3e, 0xa6,
   0xf2, 0xa3, 0x33, 0x00, 0x00, 0x00, 0x00, 0x00, 0x00, 0x00, 0x00, 0x00,
   0x00, 0x00, 0x00, 0x00, 0x0e, 0x08, 0x00, 0x00, 0x00, 0x00, 0x00, 0x00,
   0x08, 0x4c, 0xfd, 0x7f, 0x5f, 0xd7, 0xff, 0xd5, 0x5f, 0x01, 0x00, 0x00,
   0x00, 0x00, 0x00, 0x00, 0x00, 0x00, 0x00, 0x00, 0x00, 0x00, 0x18, 0x08,
   0x00, 0x00, 0x00, 0x00, 0x00, 0x00, 0x08, 0x07, 0x00, 0x00, 0x00, 0x00,
   0x00, 0x00, 0x00, 0x00, 0x00, 0x00, 0x00, 0x00, 0x00, 0x00, 0x00, 0x00,
   0x00, 0x00, 0x00, 0x00, 0x70, 0x08, 0x00, 0x00, 0x00, 0x00, 0x00, 0x00,
   0xe8, 0x01, 0x00, 0x00, 0x00, 0x00, 0x00, 0x00, 0x00, 0x00, 0x00, 0x00,
   0x00, 0x00, 0x00, 0x00, 0x00, 0x00, 0x00, 0x00, 0x00, 0x00, 0xc0, 0xff,
   0xff, 0xff, 0xff, 0xff, 0xff, 0xff, 0x3f, 0x00, 0x00, 0x00, 0x00, 0x00,
   0x00, 0x00, 0x00, 0x00, 0x00, 0x00, 0x00, 0x00, 0x00, 0x00, 0x00, 0x00,
   0x00, 0x00, 0x00, 0x00, 0x00, 0x00, 0x00, 0x00, 0x00, 0x00, 0x00, 0x00,
   0x00, 0x00, 0x00, 0x00, 0x00, 0x00, 0x00, 0x00, 0x00, 0x00, 0x00, 0x00,
   0x00, 0x00, 0x00, 0x00, 0x00, 0x00, 0x00, 0x00, 0x00, 0x00, 0x00, 0x00,
   0x00, 0x00, 0x00, 0x00, 0x00, 0x00, 0x00, 0x00, 0x00, 0x00, 0x00, 0x00,
   0x00, 0x00, 0x00, 0x00, 0x00, 0x00, 0x00, 0x00, 0x00, 0x00, 0x00, 0x00,
   0x00, 0x00, 0x00, 0x00, 0x00, 0x00, 0x00, 0x00, 0x00, 0x00, 0x00, 0x00,
   0x00, 0x00, 0x00, 0x00, 0x00, 0x00, 0x00, 0x00, 0x00, 0x00, 0x00, 0x00,
   0x00, 0x00, 0x00, 0x00, 0x00, 0x00, 0x00, 0x00, 0x00, 0x00, 0x00, 0x00,
   0x00, 0x00, 0x00, 0x00, 0x00, 0x00, 0x00, 0x00, 0x00, 0x00, 0x00, 0x00,
   0x00, 0x00, 0x00, 0x00, 0x00, 0x00};
