#define Grid50_width 50
#define Grid50_height 50
static char Grid50_bits[] = {
   0x00, 0x00, 0x00, 0x00, 0x00, 0x00, 0x02, 0x00, 0x02, 0x08, 0x20, 0x80,
   0x00, 0x02, 0x10, 0x40, 0x00, 0x01, 0x04, 0x10, 0x02, 0x00, 0x02, 0x08,
   0x20, 0x80, 0x00, 0x02, 0x54, 0x50, 0x41, 0x05, 0x15, 0x54, 0x02, 0x00,
   0x02, 0x08, 0x20, 0x80, 0x00, 0x02, 0x10, 0x40, 0x00, 0x01, 0x04, 0x10,
   0x02, 0x00, 0x02, 0x08, 0x20, 0x80, 0x00, 0x02, 0x00, 0x00, 0x00, 0x00,
   0x00, 0x00, 0x02, 0xaa, 0xaa, 0xaa, 0xaa, 0xaa, 0xaa, 0x02, 0x00, 0x00,
   0x00, 0x00, 0x00, 0x00, 0x02, 0x00, 0x02, 0x08, 0x20, 0x80, 0x00, 0x02,
   0x10, 0x40, 0x00, 0x01, 0x04, 0x10, 0x02, 0x00, 0x02, 0x08, 0x20, 0x80,
   0x00, 0x02, 0x54, 0x50, 0x41, 0x05, 0x15, 0x54, 0x02, 0x00, 0x02, 0x08,
   0x20, 0x80, 0x00, 0x02, 0x10, 0x40, 0x00, 0x01, 0x04, 0x10, 0x02, 0x00,
   0x02, 0x08, 0x20, 0x80, 0x00, 0x02, 0x00, 0x00, 0x00, 0x00, 0x00, 0x00,
   0x02, 0xaa, 0xaa, 0xaa, 0xaa, 0xaa, 0xaa, 0x02, 0x00, 0x00, 0x00, 0x00,
   0x00, 0x00, 0x02, 0x00, 0x02, 0x08, 0x20, 0x80, 0x00, 0x02, 0x10, 0x40,
   0x00, 0x01, 0x04, 0x10, 0x02, 0x00, 0x02, 0x08, 0x20, 0x80, 0x00, 0x02,
   0x54, 0x50, 0x41, 0x05, 0x15, 0x54, 0x02, 0x00, 0x02, 0x08, 0x20, 0x80,
   0x00, 0x02, 0x10, 0x40, 0x00, 0x01, 0x04, 0x10, 0x02, 0x00, 0x02, 0x08,
   0x20, 0x80, 0x00, 0x02, 0x00, 0x00, 0x00, 0x00, 0x00, 0x00, 0x02, 0xaa,
   0xaa, 0xaa, 0xaa, 0xaa, 0xaa, 0x02, 0x00, 0x00, 0x00, 0x00, 0x00, 0x00,
   0x02, 0x00, 0x02, 0x08, 0x20, 0x80, 0x00, 0x02, 0x10, 0x40, 0x00, 0x01,
   0x04, 0x10, 0x02, 0x00, 0x02, 0x08, 0x20, 0x80, 0x00, 0x02, 0x54, 0x50,
   0x41, 0x05, 0x15, 0x54, 0x02, 0x00, 0x02, 0x08, 0x20, 0x80, 0x00, 0x02,
   0x10, 0x40, 0x00, 0x01, 0x04, 0x10, 0x02, 0x00, 0x02, 0x08, 0x20, 0x80,
   0x00, 0x02, 0x00, 0x00, 0x00, 0x00, 0x00, 0x00, 0x02, 0xaa, 0xaa, 0xaa,
   0xaa, 0xaa, 0xaa, 0x02, 0x00, 0x00, 0x00, 0x00, 0x00, 0x00, 0x02, 0x00,
   0x02, 0x08, 0x20, 0x80, 0x00, 0x02, 0x10, 0x40, 0x00, 0x01, 0x04, 0x10,
   0x02, 0x00, 0x02, 0x08, 0x20, 0x80, 0x00, 0x02, 0x54, 0x50, 0x41, 0x05,
   0x15, 0x54, 0x02, 0x00, 0x02, 0x08, 0x20, 0x80, 0x00, 0x02, 0x10, 0x40,
   0x00, 0x01, 0x04, 0x10, 0x02, 0x00, 0x02, 0x08, 0x20, 0x80, 0x00, 0x02,
   0x00, 0x00, 0x00, 0x00, 0x00, 0x00, 0x02, 0xff, 0xff, 0xff, 0xff, 0xff,
   0xff, 0x03};
