#define Xgrf3_width 48
#define Xgrf3_height 48
static char Xgrf3_bits[] = {
   0x00, 0x00, 0x00, 0x00, 0x00, 0x00, 0x00, 0x00, 0x00, 0x00, 0x00, 0x00,
   0x3e, 0x00, 0x18, 0x00, 0x00, 0x00, 0x7c, 0x00, 0x0c, 0x00, 0x00, 0x00,
   0xf8, 0x00, 0x04, 0x00, 0x00, 0x00, 0xf8, 0x00, 0x06, 0x00, 0x00, 0x00,
   0xf0, 0x01, 0xe3, 0xff, 0xff, 0x7f, 0xe0, 0x83, 0x01, 0x04, 0x00, 0x40,
   0xc0, 0x87, 0x00, 0x04, 0x00, 0x40, 0xc0, 0xc7, 0x00, 0x04, 0x00, 0x40,
   0x80, 0x6f, 0x00, 0x04, 0x00, 0x40, 0x00, 0x37, 0x00, 0x04, 0x00, 0x40,
   0x00, 0x1b, 0x00, 0x04, 0x00, 0x40, 0x80, 0x3d, 0x00, 0x04, 0x00, 0x40,
   0x80, 0x3e, 0x00, 0x04, 0x00, 0x50, 0xc0, 0x7c, 0x00, 0x04, 0x00, 0x48,
   0x60, 0xf8, 0x00, 0x04, 0xff, 0x47, 0x20, 0xf0, 0x01, 0xe4, 0x01, 0x40,
   0x30, 0xf0, 0x01, 0x14, 0x00, 0x40, 0x18, 0xe0, 0x03, 0x14, 0x00, 0x40,
   0x0c, 0xc0, 0x07, 0x0c, 0x00, 0x40, 0x06, 0x80, 0x0f, 0x0c, 0x00, 0x40,
   0x22, 0x80, 0x1f, 0x04, 0x00, 0x40, 0x20, 0x00, 0x00, 0x04, 0x00, 0x40,
   0x20, 0x00, 0x00, 0xe7, 0xff, 0x47, 0x20, 0x00, 0x80, 0xe5, 0xff, 0x43,
   0x20, 0x00, 0xe0, 0x04, 0x80, 0x41, 0x20, 0x00, 0x3c, 0x04, 0x80, 0x41,
   0x20, 0xe0, 0x03, 0x04, 0xc0, 0x40, 0x20, 0x1c, 0x00, 0x04, 0x60, 0x40,
   0x20, 0x06, 0x00, 0x04, 0x30, 0x40, 0x20, 0x03, 0x00, 0x04, 0x30, 0x40,
   0x20, 0x01, 0x00, 0x04, 0x38, 0x40, 0x20, 0x01, 0x00, 0x04, 0xf8, 0x40,
   0x20, 0x00, 0x00, 0x04, 0xc0, 0x41, 0xe0, 0xff, 0xff, 0xff, 0x00, 0x7b,
   0x00, 0x00, 0x00, 0x00, 0x00, 0x03, 0x00, 0x00, 0x00, 0x00, 0x00, 0x06,
   0x00, 0x00, 0x00, 0x00, 0x00, 0x06, 0x00, 0x00, 0x00, 0x30, 0x00, 0x06,
   0x00, 0x00, 0x00, 0x30, 0x00, 0x06, 0x00, 0x00, 0x00, 0x30, 0x00, 0x06,
   0x00, 0x00, 0x00, 0x60, 0x00, 0x03, 0x00, 0x00, 0x00, 0x60, 0x00, 0x03,
   0x00, 0x00, 0x00, 0xc0, 0xc1, 0x01, 0x00, 0x00, 0x00, 0x80, 0xff, 0x00,
   0x00, 0x00, 0x00, 0x00, 0x3e, 0x00, 0x00, 0x00, 0x00, 0x00, 0x00, 0x00};
